<?xml version="1.0" encoding="utf-8"?>
<!-- Generator: Adobe Illustrator 24.0.2, SVG Export Plug-In . SVG Version: 6.00 Build 0)  -->
<svg version="1.1" xmlns="http://www.w3.org/2000/svg" xmlns:xlink="http://www.w3.org/1999/xlink" x="0px" y="0px"
	 viewBox="0 0 213.5 286.5" style="enable-background:new 0 0 213.5 286.5;" xml:space="preserve">
<style type="text/css">
	.st0{clip-path:url(#SVGID_2_);}
	.st1{fill:none;stroke:#FFFFFF;stroke-miterlimit:10;}
	.st2{clip-path:url(#SVGID_4_);}
	.st3{clip-path:url(#SVGID_6_);fill:none;stroke:#FFFFFF;stroke-miterlimit:10;}
	.st4{clip-path:url(#SVGID_6_);}
	.st5{clip-path:url(#SVGID_8_);}
	.st6{clip-path:url(#SVGID_10_);}
	.st7{clip-path:url(#SVGID_12_);}
	.st8{clip-path:url(#SVGID_14_);}
	.st9{clip-path:url(#SVGID_16_);}
	.st10{clip-path:url(#SVGID_19_);}
	.st11{clip-path:url(#SVGID_20_);}
	.st12{clip-path:url(#SVGID_22_);}
	.st13{clip-path:url(#SVGID_24_);}
	.st14{clip-path:url(#SVGID_27_);}
	.st15{clip-path:url(#SVGID_28_);}
	.st16{clip-path:url(#SVGID_30_);}
	.st17{clip-path:url(#SVGID_33_);}
	.st18{clip-path:url(#SVGID_34_);}
	.st19{clip-path:url(#SVGID_36_);}
	.st20{clip-path:url(#SVGID_38_);}
	.st21{clip-path:url(#SVGID_40_);}
	.st22{clip-path:url(#SVGID_43_);}
	.st23{clip-path:url(#SVGID_44_);}
	.st24{clip-path:url(#SVGID_47_);}
	.st25{clip-path:url(#SVGID_48_);}
	.st26{clip-path:url(#SVGID_50_);}
	.st27{fill:none;stroke:#FFFFFF;stroke-width:0.25;stroke-linecap:round;stroke-linejoin:round;}
	.st28{fill:none;stroke:#FFFFFF;stroke-linecap:round;stroke-linejoin:round;}
	.st29{clip-path:url(#SVGID_52_);}
	.st30{clip-path:url(#SVGID_54_);}
	.st31{clip-path:url(#SVGID_56_);}
	.st32{clip-path:url(#SVGID_58_);}
</style>
<g id="Calque_2">
</g>
<g id="Groupe_2">
	<title>b.</title>
	<g id="Groupe_1">
		<g>
			<g>
				<g>
					<defs>
						<path id="SVGID_1_" d="M139,107.5c2.7,6.8,4.1,14.1,4,21.4l-0.2,86.7c0,7.7-1.4,15.3-4.1,22.5c-2.6,7.1-6.4,13.7-11.2,19.6
							c-4.7,5.7-10.4,10.6-16.7,14.5c-6.2,3.8-13.1,6.3-20.3,7.3l-14.3,2c-6.8,1-13.8,0.5-20.4-1.6c-6.2-2-11.9-5.3-16.7-9.8
							c-4.9-4.6-8.7-10.2-11.2-16.4c-2.8-6.8-4.1-14.1-4-21.4l0.4-216.3l21.4-3L45.5,106c4.7-6.8,10.7-12.6,17.6-17.1
							c6.7-4.4,14.3-7.3,22.3-8.4l5.4-0.8c6.8-1,13.8-0.5,20.3,1.6c6.2,2,11.9,5.3,16.7,9.8C132.6,95.7,136.4,101.3,139,107.5z
							 M121.5,219.9l0.2-89.3c0.1-4.4-0.8-8.7-2.4-12.7c-1.5-3.7-3.7-7-6.6-9.7c-2.8-2.6-6.2-4.6-9.8-5.7c-3.9-1.2-8-1.6-12.1-0.9
							l-14.3,2c-4.3,0.6-8.4,2-12.1,4.3c-3.7,2.3-7.1,5.1-9.8,8.5c-2.8,3.5-5.1,7.4-6.6,11.5c-1.6,4.3-2.4,8.8-2.4,13.4l-0.2,89.3
							c-0.1,4.3,0.8,8.7,2.4,12.7c1.5,3.7,3.7,7,6.6,9.7c2.8,2.6,6.2,4.6,9.8,5.8c3.9,1.2,8,1.5,12.1,0.9l14.3-2
							c4.3-0.6,8.4-2.1,12-4.3c3.7-2.3,7.1-5.1,9.8-8.5c2.8-3.5,5.1-7.3,6.6-11.5C120.6,229,121.4,224.4,121.5,219.9"/>
					</defs>
					<clipPath id="SVGID_2_">
						<use xlink:href="#SVGID_1_"  style="overflow:visible;"/>
					</clipPath>
					<g class="st0">
						<path class="st1" d="M139,107.5c2.7,6.8,4.1,14.1,4,21.4l-0.2,86.7c0,7.7-1.4,15.3-4.1,22.5c-2.6,7.1-6.4,13.7-11.2,19.6
							c-4.7,5.7-10.4,10.6-16.7,14.5c-6.2,3.8-13.1,6.3-20.3,7.3l-14.3,2c-6.8,1-13.8,0.5-20.4-1.6c-6.2-2-11.9-5.3-16.7-9.8
							c-4.9-4.6-8.7-10.2-11.2-16.4c-2.8-6.8-4.1-14.1-4-21.4l0.4-216.3l21.4-3L45.5,106c4.7-6.8,10.7-12.6,17.6-17.1
							c6.7-4.4,14.3-7.3,22.3-8.4l5.4-0.8c6.8-1,13.8-0.5,20.3,1.6c6.2,2,11.9,5.3,16.7,9.8C132.6,95.7,136.4,101.3,139,107.5z
							 M121.5,219.9l0.2-89.3c0.1-4.4-0.8-8.7-2.4-12.7c-1.5-3.7-3.7-7-6.6-9.7c-2.8-2.6-6.2-4.6-9.8-5.7c-3.9-1.2-8-1.6-12.1-0.9
							l-14.3,2c-4.3,0.6-8.4,2-12.1,4.3c-3.7,2.3-7.1,5.1-9.8,8.5c-2.8,3.5-5.1,7.4-6.6,11.5c-1.6,4.3-2.4,8.8-2.4,13.4l-0.2,89.3
							c-0.1,4.3,0.8,8.7,2.4,12.7c1.5,3.7,3.7,7,6.6,9.7c2.8,2.6,6.2,4.6,9.8,5.8c3.9,1.2,8,1.5,12.1,0.9l14.3-2
							c4.3-0.6,8.4-2.1,12-4.3c3.7-2.3,7.1-5.1,9.8-8.5c2.8-3.5,5.1-7.3,6.6-11.5C120.6,229,121.4,224.4,121.5,219.9"/>
					</g>
					<use xlink:href="#SVGID_1_"  style="overflow:visible;fill:none;stroke:#FFFFFF;stroke-miterlimit:10;"/>
				</g>
				<path class="st1" d="M139,107.5c2.7,6.8,4.1,14.1,4,21.4l-0.2,86.7c0,7.7-1.4,15.3-4.1,22.5c-2.6,7.1-6.4,13.7-11.2,19.6
					c-4.7,5.7-10.4,10.6-16.7,14.5c-6.2,3.8-13.1,6.3-20.3,7.3l-14.3,2c-6.8,1-13.8,0.5-20.4-1.6c-6.2-2-11.9-5.3-16.7-9.8
					c-4.9-4.6-8.7-10.2-11.2-16.4c-2.8-6.8-4.1-14.1-4-21.4l0.4-216.3l21.4-3L45.5,106c4.7-6.8,10.7-12.6,17.6-17.1
					c6.7-4.4,14.3-7.3,22.3-8.4l5.4-0.8c6.8-1,13.8-0.5,20.3,1.6c6.2,2,11.9,5.3,16.7,9.8C132.6,95.7,136.4,101.3,139,107.5z
					 M121.5,219.9l0.2-89.3c0.1-4.4-0.8-8.7-2.4-12.7c-1.5-3.7-3.7-7-6.6-9.7c-2.8-2.6-6.2-4.6-9.8-5.7c-3.9-1.2-8-1.6-12.1-0.9
					l-14.3,2c-4.3,0.6-8.4,2-12.1,4.3c-3.7,2.3-7.1,5.1-9.8,8.5c-2.8,3.5-5.1,7.4-6.6,11.5c-1.6,4.3-2.4,8.8-2.4,13.4l-0.2,89.3
					c-0.1,4.3,0.8,8.7,2.4,12.7c1.5,3.7,3.7,7,6.6,9.7c2.8,2.6,6.2,4.6,9.8,5.8c3.9,1.2,8,1.5,12.1,0.9l14.3-2
					c4.3-0.6,8.4-2.1,12-4.3c3.7-2.3,7.1-5.1,9.8-8.5c2.8-3.5,5.1-7.3,6.6-11.5C120.6,229,121.4,224.4,121.5,219.9"/>
			</g>
			<g>
				<g>
					<defs>
						<path id="SVGID_3_" d="M139,107.5c2.7,6.8,4.1,14.1,4,21.4"/>
					</defs>
					<clipPath id="SVGID_4_">
						<use xlink:href="#SVGID_3_"  style="overflow:visible;"/>
					</clipPath>
					<g class="st2">
						<g>
							<path class="st1" d="M143,128.9c0.1-7.3-1.3-14.6-4-21.4"/>
							<path class="st1" d="M116.2,95.1c2.8,6.8,4.1,14.1,4,21.4"/>
							<path class="st1" d="M118.4,101.8"/>
							<path class="st1" d="M141.2,114.2"/>
							<path class="st1" d="M119.8,108.9"/>
							<path class="st1" d="M142.6,121.3"/>
						</g>
						<path class="st1" d="M120.2,116.5c0.1-7.3-1.2-14.6-4-21.4"/>
						<path class="st1" d="M139,107.5c2.7,6.8,4.1,14.1,4,21.4"/>
					</g>
					<use xlink:href="#SVGID_3_"  style="overflow:visible;fill:none;stroke:#FFFFFF;stroke-miterlimit:10;"/>
				</g>
				<path class="st1" d="M139,107.5c2.7,6.8,4.1,14.1,4,21.4"/>
			</g>
			<g>
				<g>
					<defs>
						<line id="SVGID_5_" x1="143" y1="128.9" x2="142.9" y2="215.5"/>
					</defs>
					<clipPath id="SVGID_6_">
						<use xlink:href="#SVGID_5_"  style="overflow:visible;"/>
					</clipPath>
					<path class="st3" d="M120.1,203.1"/>
					<g class="st4">
						<line class="st1" x1="120.1" y1="203.1" x2="120.2" y2="116.5"/>
						<line class="st1" x1="143" y1="128.9" x2="142.9" y2="215.6"/>
					</g>
					<use xlink:href="#SVGID_5_"  style="overflow:visible;fill:none;stroke:#FFFFFF;stroke-miterlimit:10;"/>
				</g>
				<path class="st1" d="M120.1,203.1"/>
				<line class="st1" x1="143" y1="128.9" x2="142.9" y2="215.6"/>
			</g>
			<g>
				<g>
					<defs>
						<path id="SVGID_7_" d="M142.9,215.5c0,7.7-1.4,15.3-4.1,22.5c-2.6,7.1-6.4,13.7-11.2,19.6c-4.7,5.7-10.4,10.6-16.7,14.5
							c-6.2,3.8-13.1,6.3-20.3,7.3"/>
					</defs>
					<clipPath id="SVGID_8_">
						<use xlink:href="#SVGID_7_"  style="overflow:visible;"/>
					</clipPath>
					<g class="st5">
						<g>
							<path class="st1" d="M138.7,238.1c2.7-7.2,4.1-14.8,4.1-22.5"/>
							<path class="st1" d="M120.1,203.1c0,7.7-1.4,15.3-4.1,22.5"/>
							<path class="st1" d="M119.6,210.8"/>
							<path class="st1" d="M142.4,223.2"/>
							<path class="st1" d="M118.2,218.3"/>
							<path class="st1" d="M141,230.7"/>
							<path class="st1" d="M127.5,257.7c4.8-5.9,8.6-12.5,11.2-19.6"/>
							<path class="st1" d="M115.9,225.7c-2.6,7.1-6.4,13.7-11.2,19.6"/>
							<path class="st1" d="M112.9,232.7"/>
							<path class="st1" d="M135.7,245.1"/>
							<path class="st1" d="M109.1,239.2"/>
							<path class="st1" d="M131.9,251.6"/>
							<path class="st1" d="M110.8,272.1c6.4-3.8,12-8.7,16.8-14.5"/>
							<path class="st1" d="M104.7,245.3C100,251,94.3,255.9,88,259.7"/>
							<path class="st1" d="M99.7,250.7"/>
							<path class="st1" d="M122.5,263.1"/>
							<path class="st1" d="M94.1,255.5"/>
							<path class="st1" d="M116.9,268"/>
							<path class="st1" d="M90.4,279.4c7.2-1,14.1-3.5,20.3-7.3"/>
							<path class="st1" d="M88,259.7c-6.2,3.8-13.1,6.3-20.4,7.3"/>
							<path class="st1" d="M81.5,263.1"/>
							<path class="st1" d="M104.3,275.5"/>
							<path class="st1" d="M74.7,265.5"/>
							<path class="st1" d="M97.5,277.9"/>
						</g>
						<path class="st1" d="M67.6,267c7.2-1,14.1-3.5,20.4-7.3c6.4-3.8,12-8.7,16.7-14.5c4.8-5.9,8.6-12.5,11.2-19.6
							c2.7-7.2,4.1-14.8,4.1-22.5"/>
						<path class="st1" d="M142.9,215.5c0,7.7-1.4,15.3-4.1,22.5c-2.6,7.1-6.4,13.7-11.2,19.6c-4.7,5.7-10.4,10.6-16.7,14.5
							c-6.2,3.8-13.1,6.3-20.3,7.3"/>
					</g>
					<use xlink:href="#SVGID_7_"  style="overflow:visible;fill:none;stroke:#FFFFFF;stroke-miterlimit:10;"/>
				</g>
				<path class="st1" d="M142.9,215.5c0,7.7-1.4,15.3-4.1,22.5c-2.6,7.1-6.4,13.7-11.2,19.6c-4.7,5.7-10.4,10.6-16.7,14.5
					c-6.2,3.8-13.1,6.3-20.3,7.3"/>
			</g>
			<g>
				<g>
					<defs>
						<line id="SVGID_9_" x1="90.4" y1="279.4" x2="76.2" y2="281.4"/>
					</defs>
					<clipPath id="SVGID_10_">
						<use xlink:href="#SVGID_9_"  style="overflow:visible;"/>
					</clipPath>
					<g class="st6">
						<line class="st1" x1="53.4" y1="269" x2="67.6" y2="267"/>
						<line class="st1" x1="90.4" y1="279.4" x2="76.2" y2="281.4"/>
					</g>
					<use xlink:href="#SVGID_9_"  style="overflow:visible;fill:none;stroke:#FFFFFF;stroke-miterlimit:10;"/>
				</g>
				<line class="st1" x1="90.4" y1="279.4" x2="76.2" y2="281.4"/>
			</g>
			<g>
				<g>
					<defs>
						<path id="SVGID_11_" d="M24,232.3c-0.1,7.3,1.2,14.6,4,21.4c2.5,6.2,6.3,11.8,11.2,16.4c2.7,2.5,5.7,4.7,8.9,6.4l-22.8-12.4
							c-3.2-1.8-6.2-3.9-8.9-6.4c-4.9-4.6-8.7-10.2-11.2-16.4c-2.8-6.8-4.1-14.1-4-21.4"/>
					</defs>
					<clipPath id="SVGID_12_">
						<use xlink:href="#SVGID_11_"  style="overflow:visible;"/>
					</clipPath>
					<g class="st7">
						<g>
							<path class="st1" d="M16.4,257.7"/>
							<path class="st1" d="M33,267.4"/>
							<path class="st1" d="M39.2,270.1c4.8,4.5,10.5,7.8,16.7,9.7"/>
							<line class="st1" x1="44.2" y1="274.1" x2="21.4" y2="261.7"/>
							<path class="st1" d="M12,252.9"/>
							<path class="st1" d="M34.8,265.3"/>
							<path class="st1" d="M8.3,247.4"/>
							<path class="st1" d="M31,259.8"/>
							<path class="st1" d="M24,232.3c-0.1,7.3,1.2,14.6,4,21.4"/>
							<path class="st1" d="M5.2,241.2c-2.8-6.8-4.1-14.1-4-21.4"/>
							<path class="st1" d="M3,234.5"/>
							<path class="st1" d="M25.7,246.9"/>
							<path class="st1" d="M1.6,227.4"/>
							<path class="st1" d="M24.4,239.8"/>
						</g>
						<path class="st1" d="M24,232.3c-0.1,7.3,1.2,14.6,4,21.4c2.5,6.2,6.3,11.8,11.2,16.4c2.7,2.5,5.7,4.7,8.9,6.4l-22.8-12.4
							c-3.2-1.8-6.2-3.9-8.9-6.4c-4.9-4.6-8.7-10.2-11.2-16.4c-2.8-6.8-4.1-14.1-4-21.4"/>
					</g>
					<use xlink:href="#SVGID_11_"  style="overflow:visible;fill:none;stroke:#FFFFFF;stroke-miterlimit:10;"/>
				</g>
				<path class="st1" d="M24,232.3c-0.1,7.3,1.2,14.6,4,21.4c2.5,6.2,6.3,11.8,11.2,16.4c2.7,2.5,5.7,4.7,8.9,6.4l-22.8-12.4
					c-3.2-1.8-6.2-3.9-8.9-6.4c-4.9-4.6-8.7-10.2-11.2-16.4c-2.8-6.8-4.1-14.1-4-21.4"/>
			</g>
			<g>
				<g>
					<path class="st1" d="M46.3,269.5"/>
					<path class="st1" d="M69.1,281.9"/>
					<path class="st1" d="M39.5,269"/>
					<path class="st1" d="M62.4,281.4"/>
					<line class="st1" x1="49.8" y1="277.4" x2="27" y2="265"/>
				</g>
			</g>
			<g>
				<g>
					<defs>
						<polyline id="SVGID_13_" points="1.2,219.9 1.6,3.5 24.4,15.9 24,232.3 						"/>
					</defs>
					<clipPath id="SVGID_14_">
						<use xlink:href="#SVGID_13_"  style="overflow:visible;"/>
					</clipPath>
					<g class="st8">
						<polyline class="st1" points="1.2,219.9 1.6,3.5 24.4,15.9 24,232.3 						"/>
					</g>
					<use xlink:href="#SVGID_13_"  style="overflow:visible;fill:none;stroke:#FFFFFF;stroke-miterlimit:10;"/>
				</g>
				<polyline class="st1" points="1.2,219.9 1.6,3.5 24.4,15.9 24,232.3 				"/>
			</g>
			<g>
				<g>
					<defs>
						<polygon id="SVGID_15_" points="24.4,15.9 1.6,3.5 23,0.5 45.7,12.9 						"/>
					</defs>
					<clipPath id="SVGID_16_">
						<use xlink:href="#SVGID_15_"  style="overflow:visible;"/>
					</clipPath>
					<g class="st9">
						<polygon class="st1" points="24.4,15.9 1.6,3.5 23,0.5 45.7,12.9 						"/>
					</g>
					<use xlink:href="#SVGID_15_"  style="overflow:visible;fill:none;stroke:#FFFFFF;stroke-miterlimit:10;"/>
				</g>
				<polygon class="st1" points="24.4,15.9 1.6,3.5 23,0.5 45.7,12.9 				"/>
			</g>
			<g>
				<path class="st1" d="M24.2,94.4"/>
				<polyline class="st1" points="23,0.5 45.7,12.9 45.6,106 				"/>
			</g>
			<g>
				<g>
					<path class="st1" d="M28,87.1"/>
					<path class="st1" d="M50.8,99.5"/>
					<path class="st1" d="M56.6,93.8"/>
					<path class="st1" d="M85.4,80.5c-8,1.1-15.6,4-22.3,8.4"/>
					<path class="st1" d="M45.7,73.4c5.3-2.7,11-4.5,16.9-5.3"/>
					<path class="st1" d="M47.4,72.6"/>
					<path class="st1" d="M70.2,85"/>
					<path class="st1" d="M54.8,69.8"/>
					<path class="st1" d="M77.6,82.2"/>
				</g>
			</g>
			<g>
				<g>
					<defs>
						<line id="SVGID_17_" x1="90.8" y1="79.7" x2="85.4" y2="80.5"/>
					</defs>
					<defs>
						<line id="SVGID_18_" x1="62.6" y1="68.1" x2="68" y2="67.3"/>
					</defs>
					<clipPath id="SVGID_19_">
						<use xlink:href="#SVGID_17_"  style="overflow:visible;"/>
					</clipPath>
					<clipPath id="SVGID_20_" class="st10">
						<use xlink:href="#SVGID_18_"  style="overflow:visible;"/>
					</clipPath>
					<g class="st11">
						<line class="st1" x1="90.8" y1="79.7" x2="85.4" y2="80.5"/>
						<line class="st1" x1="62.6" y1="68.1" x2="68" y2="67.3"/>
					</g>
					<use xlink:href="#SVGID_17_"  style="overflow:visible;fill:none;stroke:#FFFFFF;stroke-miterlimit:10;"/>
					<use xlink:href="#SVGID_18_"  style="overflow:visible;fill:none;stroke:#FFFFFF;stroke-miterlimit:10;"/>
				</g>
				<line class="st1" x1="90.8" y1="79.7" x2="85.4" y2="80.5"/>
				<line class="st1" x1="62.6" y1="68.1" x2="68" y2="67.3"/>
			</g>
			<g>
				<g>
					<defs>
						<path id="SVGID_21_" d="M105,78.6c-2.7-2.5-5.7-4.7-8.9-6.4l22.8,12.4c3.2,1.8,6.2,3.9,8.9,6.4c4.9,4.6,8.7,10.2,11.2,16.4"/>
					</defs>
					<clipPath id="SVGID_22_">
						<use xlink:href="#SVGID_21_"  style="overflow:visible;"/>
					</clipPath>
					<g class="st12">
						<g>
							<path class="st1" d="M111.1,81.3L88.3,68.9c6.2,2,11.9,5.3,16.7,9.8L127.8,91C123,86.6,117.3,83.3,111.1,81.3z"/>
							<line class="st1" x1="122.8" y1="87" x2="100" y2="74.6"/>
							<path class="st1" d="M109.4,83.4"/>
							<path class="st1" d="M132.2,95.8"/>
							<path class="st1" d="M113.1,88.9"/>
							<path class="st1" d="M135.9,101.3"/>
						</g>
						<path class="st1" d="M105,78.6c-2.7-2.5-5.7-4.7-8.9-6.4l22.8,12.4c3.2,1.8,6.2,3.9,8.9,6.4c4.9,4.6,8.7,10.2,11.2,16.4"/>
					</g>
					<use xlink:href="#SVGID_21_"  style="overflow:visible;fill:none;stroke:#FFFFFF;stroke-miterlimit:10;"/>
				</g>
				<path class="st1" d="M105,78.6c-2.7-2.5-5.7-4.7-8.9-6.4l22.8,12.4c3.2,1.8,6.2,3.9,8.9,6.4c4.9,4.6,8.7,10.2,11.2,16.4"/>
			</g>
			<g>
				<g>
					<defs>
						<path id="SVGID_23_" d="M68,67.3c9.7-1.5,19.5,0.2,28.1,4.9l22.8,12.4c-8.6-4.7-18.5-6.4-28.1-4.9"/>
					</defs>
					<clipPath id="SVGID_24_">
						<use xlink:href="#SVGID_23_"  style="overflow:visible;"/>
					</clipPath>
					<g class="st13">
						<g>
							<path class="st1" d="M68,67.3c6.8-1,13.8-0.5,20.3,1.5l22.8,12.4c-6.6-2.1-13.5-2.6-20.3-1.6"/>
							<path class="st1" d="M75,66.8"/>
							<path class="st1" d="M97.9,79.2"/>
							<path class="st1" d="M81.8,67.4"/>
							<path class="st1" d="M104.6,79.8"/>
							<path class="st1" d="M88.3,68.9c6.2,2,11.9,5.3,16.7,9.8L127.8,91c-4.8-4.5-10.5-7.8-16.7-9.8"/>
							<line class="st1" x1="117.2" y1="83.7" x2="94.4" y2="71.3"/>
						</g>
						<path class="st1" d="M68,67.3c9.7-1.5,19.5,0.2,28.1,4.9l22.8,12.4c-8.6-4.7-18.5-6.4-28.1-4.9"/>
					</g>
					<use xlink:href="#SVGID_23_"  style="overflow:visible;fill:none;stroke:#FFFFFF;stroke-miterlimit:10;"/>
				</g>
				<path class="st1" d="M68,67.3c9.7-1.5,19.5,0.2,28.1,4.9l22.8,12.4c-8.6-4.7-18.5-6.4-28.1-4.9"/>
			</g>
			<g>
				<g>
					<defs>
						<line id="SVGID_25_" x1="121.6" y1="130.6" x2="121.5" y2="219.9"/>
					</defs>
					<defs>
						<line id="SVGID_26_" x1="98.7" y1="207.5" x2="98.9" y2="118.2"/>
					</defs>
					<clipPath id="SVGID_27_">
						<use xlink:href="#SVGID_25_"  style="overflow:visible;"/>
					</clipPath>
					<clipPath id="SVGID_28_" class="st14">
						<use xlink:href="#SVGID_26_"  style="overflow:visible;"/>
					</clipPath>
					<g class="st15">
						<line class="st1" x1="121.6" y1="130.6" x2="121.5" y2="219.9"/>
						<line class="st1" x1="98.7" y1="207.5" x2="98.8" y2="118.2"/>
					</g>
					<use xlink:href="#SVGID_25_"  style="overflow:visible;fill:none;stroke:#FFFFFF;stroke-miterlimit:10;"/>
					<use xlink:href="#SVGID_26_"  style="overflow:visible;fill:none;stroke:#FFFFFF;stroke-miterlimit:10;"/>
				</g>
				<line class="st1" x1="121.6" y1="130.6" x2="121.5" y2="219.9"/>
				<line class="st1" x1="98.7" y1="207.5" x2="98.8" y2="118.2"/>
			</g>
			<g>
				<g>
					<defs>
						<path id="SVGID_29_" d="M107.4,104.4c-5.1-2.8-10.9-3.8-16.6-2.9"/>
					</defs>
					<clipPath id="SVGID_30_">
						<use xlink:href="#SVGID_29_"  style="overflow:visible;"/>
					</clipPath>
					<g class="st16">
						<g>
							<path class="st1" d="M89.9,95.8"/>
							<path class="st1" d="M102.8,102.4c3.7,1.2,7,3.1,9.8,5.7"/>
							<path class="st1" d="M80,90"/>
							<path class="st1" d="M106.4,103.9"/>
							<path class="st1" d="M80,90c-3.9-1.2-8-1.6-12.1-0.9"/>
							<path class="st1" d="M90.8,101.5c4-0.6,8.2-0.3,12.1,0.9"/>
							<path class="st1" d="M76.2,89.1"/>
							<path class="st1" d="M99,101.5"/>
							<path class="st1" d="M72.2,88.8"/>
							<path class="st1" d="M95,101.2"/>
						</g>
						<path class="st1" d="M107.4,104.4c-5.1-2.8-10.9-3.8-16.6-2.9"/>
						<path class="st1" d="M68,89.1c4-0.6,8.2-0.3,12.1,0.9"/>
					</g>
					<use xlink:href="#SVGID_29_"  style="overflow:visible;fill:none;stroke:#FFFFFF;stroke-miterlimit:10;"/>
				</g>
				<path class="st1" d="M107.4,104.4c-5.1-2.8-10.9-3.8-16.6-2.9"/>
			</g>
			<g>
				<g>
					<defs>
						<path id="SVGID_31_" d="M107.4,104.4c1.9,1,3.7,2.3,5.2,3.8c2.8,2.7,5.1,6,6.6,9.7c1.7,4,2.5,8.3,2.4,12.7"/>
					</defs>
					<defs>
						<path id="SVGID_32_" d="M98.9,118.2c0.1-4.4-0.8-8.7-2.4-12.7c-0.6-1.5-1.3-2.9-2.2-4.3"/>
					</defs>
					<clipPath id="SVGID_33_">
						<use xlink:href="#SVGID_31_"  style="overflow:visible;"/>
					</clipPath>
					<clipPath id="SVGID_34_" class="st17">
						<use xlink:href="#SVGID_32_"  style="overflow:visible;"/>
					</clipPath>
					<g class="st18">
						<g>
							<path class="st1" d="M119.2,117.9c1.7,4,2.5,8.3,2.4,12.7"/>
							<path class="st1" d="M98.9,118.2c0.1-4.4-0.8-8.7-2.4-12.7"/>
							<path class="st1" d="M98.6,113.7"/>
							<path class="st1" d="M121.4,126.1"/>
							<path class="st1" d="M97.8,109.4"/>
							<path class="st1" d="M120.5,121.8"/>
							<path class="st1" d="M96.4,105.5c-1.5-3.7-3.7-7-6.6-9.7l22.8,12.4c2.8,2.7,5.1,6,6.6,9.7"/>
							<path class="st1" d="M94.6,101.8"/>
							<path class="st1" d="M117.4,114.2"/>
							<path class="st1" d="M92.4,98.6"/>
							<path class="st1" d="M115.2,111"/>
							<path class="st1" d="M102.8,102.4c3.7,1.2,7,3.1,9.8,5.7L89.9,95.8"/>
							<path class="st1" d="M80,90"/>
							<line class="st1" x1="109.7" y1="105.8" x2="86.9" y2="93.4"/>
						</g>
						<path class="st1" d="M107.4,104.4c1.9,1,3.7,2.3,5.2,3.8c2.8,2.7,5.1,6,6.6,9.7c1.7,4,2.5,8.3,2.4,12.7"/>
						<path class="st1" d="M98.9,118.2c0.1-4.4-0.8-8.7-2.4-12.7c-1.5-3.7-3.7-7-6.6-9.7"/>
					</g>
					<use xlink:href="#SVGID_31_"  style="overflow:visible;fill:none;stroke:#FFFFFF;stroke-miterlimit:10;"/>
					<use xlink:href="#SVGID_32_"  style="overflow:visible;fill:none;stroke:#FFFFFF;stroke-miterlimit:10;"/>
				</g>
				<path class="st1" d="M107.4,104.4c1.9,1,3.7,2.3,5.2,3.8c2.8,2.7,5.1,6,6.6,9.7c1.7,4,2.5,8.3,2.4,12.7"/>
				<path class="st1" d="M98.9,118.2c0.1-4.4-0.8-8.7-2.4-12.7c-0.6-1.5-1.3-2.9-2.2-4.3"/>
			</g>
			<g>
				<g>
					<defs>
						<line id="SVGID_35_" x1="90.8" y1="101.5" x2="76.5" y2="103.5"/>
					</defs>
					<clipPath id="SVGID_36_">
						<use xlink:href="#SVGID_35_"  style="overflow:visible;"/>
					</clipPath>
					<g class="st19">
						<line class="st1" x1="90.8" y1="101.5" x2="76.5" y2="103.5"/>
						<line class="st1" x1="53.7" y1="91.1" x2="68" y2="89.1"/>
					</g>
					<use xlink:href="#SVGID_35_"  style="overflow:visible;fill:none;stroke:#FFFFFF;stroke-miterlimit:10;"/>
				</g>
				<line class="st1" x1="90.8" y1="101.5" x2="76.5" y2="103.5"/>
			</g>
			<g>
				<g>
					<defs>
						<path id="SVGID_37_" d="M76.5,103.5c-4.3,0.6-8.4,2-12.1,4.3c-3.7,2.3-7.1,5.1-9.8,8.5c-2.8,3.5-5.1,7.4-6.6,11.5
							c-1.6,4.3-2.4,8.8-2.4,13.4"/>
					</defs>
					<clipPath id="SVGID_38_">
						<use xlink:href="#SVGID_37_"  style="overflow:visible;"/>
					</clipPath>
					<g class="st20">
						<g>
							<path class="st1" d="M64.4,107.8c3.7-2.2,7.8-3.7,12.1-4.3"/>
							<path class="st1" d="M53.7,91.1c-4.3,0.6-8.4,2.1-12.1,4.3"/>
							<path class="st1" d="M49.5,92"/>
							<path class="st1" d="M72.3,104.4"/>
							<path class="st1" d="M45.5,93.4"/>
							<path class="st1" d="M68.3,105.8"/>
							<path class="st1" d="M54.6,116.3c2.8-3.4,6.1-6.2,9.8-8.5"/>
							<path class="st1" d="M41.6,95.4c-3.7,2.2-7.1,5.1-9.8,8.5"/>
							<path class="st1" d="M38,97.9"/>
							<path class="st1" d="M60.8,110.3"/>
							<path class="st1" d="M34.7,100.7"/>
							<path class="st1" d="M57.5,113.1"/>
							<path class="st1" d="M48,127.9c1.6-4.2,3.8-8.1,6.6-11.5"/>
							<path class="st1" d="M31.8,103.9c-2.8,3.5-5.1,7.4-6.6,11.5"/>
							<path class="st1" d="M29.2,107.5"/>
							<path class="st1" d="M52,119.9"/>
							<path class="st1" d="M27,111.3"/>
							<path class="st1" d="M49.8,123.7"/>
							<path class="st1" d="M45.5,141.3c0-4.6,0.8-9.1,2.5-13.4"/>
							<path class="st1" d="M25.2,115.5c-1.6,4.3-2.5,8.8-2.5,13.4"/>
							<path class="st1" d="M23.8,119.8"/>
							<path class="st1" d="M46.6,132.2"/>
							<path class="st1" d="M23,124.3"/>
							<path class="st1" d="M45.8,136.7"/>
						</g>
						<path class="st1" d="M22.7,128.9c0-4.6,0.8-9.1,2.5-13.4c1.6-4.2,3.8-8.1,6.6-11.5c2.8-3.4,6.1-6.3,9.8-8.5
							c3.7-2.3,7.8-3.7,12.1-4.3"/>
						<path class="st1" d="M76.5,103.5c-4.3,0.6-8.4,2-12.1,4.3c-3.7,2.3-7.1,5.1-9.8,8.5c-2.8,3.5-5.1,7.4-6.6,11.5
							c-1.6,4.3-2.4,8.8-2.4,13.4"/>
					</g>
					<use xlink:href="#SVGID_37_"  style="overflow:visible;fill:none;stroke:#FFFFFF;stroke-miterlimit:10;"/>
				</g>
				<path class="st1" d="M76.5,103.5c-4.3,0.6-8.4,2-12.1,4.3c-3.7,2.3-7.1,5.1-9.8,8.5c-2.8,3.5-5.1,7.4-6.6,11.5
					c-1.6,4.3-2.4,8.8-2.4,13.4"/>
			</g>
			<g>
				<g>
					<defs>
						<line id="SVGID_39_" x1="45.5" y1="141.3" x2="45.3" y2="230.6"/>
					</defs>
					<clipPath id="SVGID_40_">
						<use xlink:href="#SVGID_39_"  style="overflow:visible;"/>
					</clipPath>
					<g class="st21">
						<line class="st1" x1="22.5" y1="218.2" x2="22.7" y2="128.9"/>
						<line class="st1" x1="45.5" y1="141.3" x2="45.3" y2="230.6"/>
					</g>
					<use xlink:href="#SVGID_39_"  style="overflow:visible;fill:none;stroke:#FFFFFF;stroke-miterlimit:10;"/>
				</g>
				<line class="st1" x1="45.5" y1="141.3" x2="45.3" y2="230.6"/>
			</g>
			<g>
				<g>
					<path class="st1" d="M49.9,247.5c1.2,0,2.3-0.1,3.5-0.3"/>
					<path class="st1" d="M76.2,259.6c-4,0.6-8.2,0.3-12.1-0.9"/>
					<path class="st1" d="M68,259.6"/>
					<path class="st1" d="M49.2,247.5"/>
					<path class="st1" d="M72,259.9"/>
				</g>
			</g>
			<g>
				<g>
					<path class="st1" d="M47.8,243.3c-1.7-4-2.5-8.3-2.4-12.7"/>
					<path class="st1" d="M22.8,222.7"/>
					<path class="st1" d="M45.6,235.1"/>
					<path class="st1" d="M23.6,226.9"/>
					<path class="st1" d="M46.4,239.3"/>
					<path class="st1" d="M49.5,246.9"/>
					<path class="st1" d="M51.7,250.1"/>
				</g>
			</g>
			<g>
				<g>
					<defs>
						<line id="SVGID_41_" x1="53.4" y1="247.2" x2="67.7" y2="245.2"/>
					</defs>
					<defs>
						<line id="SVGID_42_" x1="90.5" y1="257.6" x2="76.2" y2="259.6"/>
					</defs>
					<clipPath id="SVGID_43_">
						<use xlink:href="#SVGID_41_"  style="overflow:visible;"/>
					</clipPath>
					<clipPath id="SVGID_44_" class="st22">
						<use xlink:href="#SVGID_42_"  style="overflow:visible;"/>
					</clipPath>
					<g class="st23">
						<line class="st1" x1="53.4" y1="247.2" x2="67.7" y2="245.2"/>
						<line class="st1" x1="90.5" y1="257.6" x2="76.2" y2="259.6"/>
					</g>
					<use xlink:href="#SVGID_41_"  style="overflow:visible;fill:none;stroke:#FFFFFF;stroke-miterlimit:10;"/>
					<use xlink:href="#SVGID_42_"  style="overflow:visible;fill:none;stroke:#FFFFFF;stroke-miterlimit:10;"/>
				</g>
				<line class="st1" x1="53.4" y1="247.2" x2="67.7" y2="245.2"/>
				<line class="st1" x1="90.5" y1="257.6" x2="76.2" y2="259.6"/>
			</g>
			<g>
				<g>
					<defs>
						<path id="SVGID_45_" d="M67.7,245.2c4.3-0.6,8.4-2.1,12.1-4.3c3.7-2.3,7.1-5.1,9.8-8.5c2.8-3.5,5.1-7.4,6.6-11.5
							c1.6-4.3,2.5-8.8,2.5-13.4"/>
					</defs>
					<defs>
						<path id="SVGID_46_" d="M121.5,219.9c0,4.6-0.8,9.1-2.5,13.4c-1.6,4.2-3.8,8.1-6.6,11.5c-2.8,3.4-6.1,6.3-9.8,8.5
							c-3.7,2.2-7.8,3.7-12.1,4.3"/>
					</defs>
					<clipPath id="SVGID_47_">
						<use xlink:href="#SVGID_45_"  style="overflow:visible;"/>
					</clipPath>
					<clipPath id="SVGID_48_" class="st24">
						<use xlink:href="#SVGID_46_"  style="overflow:visible;"/>
					</clipPath>
					<g class="st25">
						<g>
							<path class="st1" d="M67.7,245.2c4.3-0.6,8.4-2.1,12.1-4.3"/>
							<path class="st1" d="M102.5,253.3c-3.7,2.2-7.8,3.7-12.1,4.3"/>
							<path class="st1" d="M71.9,244.3"/>
							<path class="st1" d="M94.7,256.7"/>
							<path class="st1" d="M75.9,242.9"/>
							<path class="st1" d="M98.7,255.3"/>
							<path class="st1" d="M79.8,240.9c3.7-2.3,7.1-5.1,9.8-8.5"/>
							<path class="st1" d="M112.4,244.8c-2.8,3.4-6.1,6.3-9.8,8.5"/>
							<path class="st1" d="M83.4,238.4"/>
							<path class="st1" d="M106.2,250.8"/>
							<path class="st1" d="M86.6,235.6"/>
							<path class="st1" d="M109.4,248"/>
							<path class="st1" d="M89.6,232.4c2.8-3.5,5.1-7.4,6.6-11.5"/>
							<path class="st1" d="M119,233.3c-1.6,4.2-3.8,8.1-6.6,11.5"/>
							<path class="st1" d="M92.2,228.8"/>
							<path class="st1" d="M115,241.2"/>
							<path class="st1" d="M94.4,225"/>
							<path class="st1" d="M117.2,237.4"/>
							<path class="st1" d="M96.2,220.8c1.6-4.3,2.5-8.8,2.5-13.4"/>
							<path class="st1" d="M121.5,219.9c0,4.6-0.8,9.1-2.5,13.4"/>
							<path class="st1" d="M97.6,216.5"/>
							<path class="st1" d="M120.4,228.9"/>
							<path class="st1" d="M98.4,212"/>
							<path class="st1" d="M121.2,224.4"/>
						</g>
						<path class="st1" d="M67.7,245.2c4.3-0.6,8.4-2.1,12.1-4.3c3.7-2.3,7.1-5.1,9.8-8.5c2.8-3.5,5.1-7.4,6.6-11.5
							c1.6-4.3,2.5-8.8,2.5-13.4"/>
						<path class="st1" d="M121.5,219.9c0,4.6-0.8,9.1-2.5,13.4c-1.6,4.2-3.8,8.1-6.6,11.5c-2.8,3.4-6.1,6.3-9.8,8.5
							c-3.7,2.2-7.8,3.7-12.1,4.3"/>
					</g>
					<use xlink:href="#SVGID_45_"  style="overflow:visible;fill:none;stroke:#FFFFFF;stroke-miterlimit:10;"/>
					<use xlink:href="#SVGID_46_"  style="overflow:visible;fill:none;stroke:#FFFFFF;stroke-miterlimit:10;"/>
				</g>
				<path class="st1" d="M67.7,245.2c4.3-0.6,8.4-2.1,12.1-4.3c3.7-2.3,7.1-5.1,9.8-8.5c2.8-3.5,5.1-7.4,6.6-11.5
					c1.6-4.3,2.5-8.8,2.5-13.4"/>
				<path class="st1" d="M121.5,219.9c0,4.6-0.8,9.1-2.5,13.4c-1.6,4.2-3.8,8.1-6.6,11.5c-2.8,3.4-6.1,6.3-9.8,8.5
					c-3.7,2.2-7.8,3.7-12.1,4.3"/>
			</g>
		</g>
		<g>
			<g>
				<g>
					<defs>
						<polyline id="SVGID_49_" points="180.9,279.8 180.9,257.4 201.6,254.5 						"/>
					</defs>
					<clipPath id="SVGID_50_">
						<use xlink:href="#SVGID_49_"  style="overflow:visible;"/>
					</clipPath>
					<g class="st26">
						<polyline class="st27" points="180.9,279.8 180.9,257.4 201.6,254.5 						"/>
					</g>
					<use xlink:href="#SVGID_49_"  style="overflow:visible;fill:none;stroke:#FFFFFF;stroke-miterlimit:10;"/>
				</g>
				<polyline class="st28" points="180.9,279.8 180.9,257.4 201.6,254.5 				"/>
			</g>
			<g>
				<g>
					<defs>
						<polygon id="SVGID_51_" points="213,260.7 213,283.1 192.2,286 192.3,263.6 						"/>
					</defs>
					<clipPath id="SVGID_52_">
						<use xlink:href="#SVGID_51_"  style="overflow:visible;"/>
					</clipPath>
					<g class="st29">
						<polygon class="st27" points="213,260.7 213,283.1 192.3,286 192.3,263.6 						"/>
					</g>
					<use xlink:href="#SVGID_51_"  style="overflow:visible;fill:none;stroke:#FFFFFF;stroke-miterlimit:10;"/>
				</g>
				<polygon class="st28" points="213,260.7 213,283.1 192.3,286 192.3,263.6 				"/>
			</g>
			<g>
				<g>
					<defs>
						<polyline id="SVGID_53_" points="201.6,254.5 213,260.7 213,283.1 						"/>
					</defs>
					<clipPath id="SVGID_54_">
						<use xlink:href="#SVGID_53_"  style="overflow:visible;"/>
					</clipPath>
					<g class="st30">
						<polyline class="st27" points="201.6,254.5 213,260.7 213,283.1 						"/>
					</g>
					<use xlink:href="#SVGID_53_"  style="overflow:visible;fill:none;stroke:#FFFFFF;stroke-miterlimit:10;"/>
				</g>
				<polyline class="st28" points="201.6,254.5 213,260.7 213,283.1 				"/>
			</g>
			<g>
				<polyline class="st28" points="213,283.1 192.3,286 180.9,279.8 				"/>
			</g>
			<g>
				<g>
					<defs>
						<polygon id="SVGID_55_" points="192.2,286 180.9,279.8 180.9,257.4 192.3,263.6 						"/>
					</defs>
					<clipPath id="SVGID_56_">
						<use xlink:href="#SVGID_55_"  style="overflow:visible;"/>
					</clipPath>
					<g class="st31">
						<polygon class="st27" points="192.3,286 180.9,279.8 180.9,257.4 192.3,263.6 						"/>
					</g>
					<use xlink:href="#SVGID_55_"  style="overflow:visible;fill:none;stroke:#FFFFFF;stroke-miterlimit:10;"/>
				</g>
				<polygon class="st28" points="192.3,286 180.9,279.8 180.9,257.4 192.3,263.6 				"/>
			</g>
			<g>
				<g>
					<defs>
						<polygon id="SVGID_57_" points="192.3,263.6 180.9,257.4 201.6,254.5 213,260.7 						"/>
					</defs>
					<clipPath id="SVGID_58_">
						<use xlink:href="#SVGID_57_"  style="overflow:visible;"/>
					</clipPath>
					<g class="st32">
						<polygon class="st27" points="192.3,263.6 180.9,257.4 201.6,254.5 213,260.7 						"/>
					</g>
					<use xlink:href="#SVGID_57_"  style="overflow:visible;fill:none;stroke:#FFFFFF;stroke-miterlimit:10;"/>
				</g>
				<polygon class="st28" points="192.3,263.6 180.9,257.4 201.6,254.5 213,260.7 				"/>
			</g>
		</g>
	</g>
</g>
</svg>
