<?xml version="1.0" encoding="utf-8"?>
<!-- Generator: Adobe Illustrator 24.1.2, SVG Export Plug-In . SVG Version: 6.00 Build 0)  -->
<svg version="1.1" id="Calque_1" xmlns="http://www.w3.org/2000/svg" xmlns:xlink="http://www.w3.org/1999/xlink" x="0px" y="0px"
	 viewBox="0 0 24.1 24.1" style="enable-background:new 0 0 24.1 24.1;" xml:space="preserve">
<style type="text/css">
	.st0{fill:#3DC1D3;}
	.st1{clip-path:url(#SVGID_2_);}
	.st2{fill:none;stroke:#F985DE;stroke-width:3.686706e-02;stroke-linecap:round;stroke-linejoin:round;}
	.st3{fill:none;stroke:#F985DE;stroke-width:0.1475;stroke-linecap:round;stroke-linejoin:round;}
	.st4{clip-path:url(#SVGID_4_);}
	.st5{clip-path:url(#SVGID_6_);}
	.st6{clip-path:url(#SVGID_8_);}
	.st7{clip-path:url(#SVGID_10_);}
</style>
<g>
	<g id="Calque_2_1_">
	</g>
	<g id="Calque_1_1_">
		<g>
			<path class="st0" d="M11.8,18.4c-0.2,0.4-0.5,0.7-0.8,1.1c-0.3,0.3-0.7,0.5-1.2,0.7c-0.3,0.2-0.7,0.3-1.3,0.3h-1
				c-0.5,0-1-0.1-1.4-0.3s-0.8-0.4-1.2-0.7c-0.3-0.3-0.5-0.6-0.7-1.1S4,17.6,4,17V3.6h1.5v5.8c0.3-0.4,0.7-0.7,1.2-1s1-0.3,1.5-0.3
				h0.3c0.5,0,1,0.1,1.4,0.3c0.5,0.1,0.8,0.4,1.2,0.7c0.3,0.3,0.5,0.7,0.7,1.2c0.2,0.3,0.3,0.7,0.3,1.3V17
				C12.1,17.4,11.9,18,11.8,18.4z M10.7,11.5c0-0.3-0.1-0.5-0.2-0.8c-0.1-0.2-0.2-0.4-0.4-0.6C9.8,9.9,9.6,9.7,9.4,9.6
				C9.1,9.5,8.9,9.5,8.6,9.5h-1c-0.3,0-0.5,0-0.8,0.1C6.5,9.7,6.3,9.9,6.1,10c-0.2,0.2-0.3,0.4-0.4,0.7c-0.1,0.2-0.2,0.5-0.2,0.7V17
				c0,0.3,0.1,0.5,0.2,0.8s0.2,0.4,0.4,0.6c0.2,0.2,0.4,0.3,0.6,0.4C7,19,7.3,19.1,7.6,19.1h1c0.3,0,0.5-0.1,0.8-0.2
				c0.2-0.1,0.4-0.2,0.6-0.4c0.2-0.2,0.3-0.4,0.4-0.6c0.1-0.2,0.2-0.5,0.2-0.8C10.7,17.1,10.7,11.5,10.7,11.5z"/>
		</g>
	</g>
	<g>
		<g>
			<g>
				<g>
					<defs>
						<polyline id="SVGID_1_" points="15.2,19.4 15.3,16 18.3,15.5 						"/>
					</defs>
					<clipPath id="SVGID_2_">
						<use xlink:href="#SVGID_1_"  style="overflow:visible;"/>
					</clipPath>
					<g class="st1">
						<polyline class="st2" points="15.3,19.4 15.3,16 18.3,15.5 						"/>
					</g>
				</g>
			</g>
			<polyline class="st3" points="15.3,19.4 15.3,16 18.3,15.5 			"/>
		</g>
		<g>
			<g>
				<g>
					<defs>
						<polygon id="SVGID_3_" points="20,16.5 20,19.8 16.9,20.2 16.9,16.9 						"/>
					</defs>
					<clipPath id="SVGID_4_">
						<use xlink:href="#SVGID_3_"  style="overflow:visible;"/>
					</clipPath>
					<g class="st4">
						<polygon class="st2" points="20,16.5 20,19.8 16.9,20.2 16.9,16.9 						"/>
					</g>
				</g>
			</g>
			<polygon class="st3" points="20,16.5 20,19.8 16.9,20.2 16.9,16.9 			"/>
		</g>
		<g>
			<g>
				<g>
					<defs>
						<polyline id="SVGID_5_" points="18.3,15.5 20,16.5 20,19.8 						"/>
					</defs>
					<clipPath id="SVGID_6_">
						<use xlink:href="#SVGID_5_"  style="overflow:visible;"/>
					</clipPath>
					<g class="st5">
						<polyline class="st2" points="18.3,15.5 20,16.5 20,19.8 						"/>
					</g>
				</g>
			</g>
			<polyline class="st3" points="18.3,15.5 20,16.5 20,19.8 			"/>
		</g>
		<g>
			<polyline class="st3" points="20,19.8 16.9,20.2 15.3,19.4 			"/>
		</g>
		<g>
			<g>
				<g>
					<defs>
						<polygon id="SVGID_7_" points="16.9,20.2 15.3,19.4 15.3,16 16.9,16.9 						"/>
					</defs>
					<clipPath id="SVGID_8_">
						<use xlink:href="#SVGID_7_"  style="overflow:visible;"/>
					</clipPath>
					<g class="st6">
						<polygon class="st2" points="16.9,20.2 15.3,19.4 15.3,16 16.9,16.9 						"/>
					</g>
				</g>
			</g>
			<polygon class="st3" points="16.9,20.2 15.3,19.4 15.3,16 16.9,16.9 			"/>
		</g>
		<g>
			<g>
				<g>
					<defs>
						<polygon id="SVGID_9_" points="16.9,16.9 15.3,16 18.3,15.5 20,16.5 						"/>
					</defs>
					<clipPath id="SVGID_10_">
						<use xlink:href="#SVGID_9_"  style="overflow:visible;"/>
					</clipPath>
					<g class="st7">
						<polygon class="st2" points="16.9,16.9 15.3,16 18.3,15.5 20,16.5 						"/>
					</g>
				</g>
			</g>
			<polygon class="st3" points="16.9,16.9 15.3,16 18.3,15.5 20,16.5 			"/>
		</g>
	</g>
</g>
</svg>
