<?xml version="1.0" encoding="utf-8"?>
<!-- Generator: Adobe Illustrator 24.1.2, SVG Export Plug-In . SVG Version: 6.00 Build 0)  -->
<svg version="1.1" id="Calque_1" xmlns="http://www.w3.org/2000/svg" xmlns:xlink="http://www.w3.org/1999/xlink" x="0px" y="0px"
	 viewBox="0 0 16 16" style="enable-background:new 0 0 16 16;" xml:space="preserve">
<style type="text/css">
	.st0{fill:#3DC1D3;}
	.st1{clip-path:url(#SVGID_2_);}
	.st2{fill:none;stroke:#F985DE;stroke-width:3.481363e-02;stroke-linecap:round;stroke-linejoin:round;}
	.st3{fill:none;stroke:#F985DE;stroke-width:0.1393;stroke-linecap:round;stroke-linejoin:round;}
	.st4{clip-path:url(#SVGID_4_);}
	.st5{clip-path:url(#SVGID_6_);}
	.st6{clip-path:url(#SVGID_8_);}
	.st7{clip-path:url(#SVGID_10_);}
</style>
<g>
	<g id="Calque_2_1_">
	</g>
	<g id="Calque_1_1_">
		<g>
			<path class="st0" d="M7.8,14C7.6,14.4,7.3,14.7,7,15c-0.3,0.3-0.7,0.5-1.1,0.7C5.6,15.9,5.2,16,4.7,16H3.8
				c-0.5,0-0.9-0.1-1.3-0.3S1.7,15.3,1.4,15S0.9,14.4,0.7,14c-0.2-0.4-0.3-0.8-0.3-1.3V0h1.4v5.5c0.3-0.4,0.7-0.7,1.1-0.9
				c0.4-0.2,0.9-0.3,1.4-0.3h0.3c0.5,0,0.9,0.1,1.3,0.3C6.4,4.7,6.7,5,7,5.3c0.3,0.3,0.5,0.7,0.7,1.1C7.9,6.7,8,7.1,8,7.6v5.1
				C8,13.1,7.9,13.6,7.8,14z M6.7,7.5c0-0.3-0.1-0.5-0.2-0.8C6.4,6.5,6.3,6.3,6.1,6.1C5.9,6,5.7,5.8,5.5,5.7C5.2,5.6,5,5.6,4.7,5.6
				H3.8C3.5,5.6,3.3,5.6,3,5.7C2.8,5.8,2.6,6,2.4,6.1C2.2,6.3,2.1,6.5,2,6.8C1.9,7,1.8,7.3,1.8,7.5v5.2c0,0.3,0.1,0.5,0.2,0.8
				s0.2,0.4,0.4,0.6c0.2,0.2,0.4,0.3,0.6,0.4c0.2,0.1,0.5,0.2,0.8,0.2h0.9c0.3,0,0.5-0.1,0.8-0.2c0.2-0.1,0.4-0.2,0.6-0.4
				c0.2-0.2,0.3-0.4,0.4-0.6c0.1-0.2,0.2-0.5,0.2-0.8C6.7,12.8,6.7,7.5,6.7,7.5z"/>
		</g>
	</g>
	<g>
		<g>
			<g>
				<defs>
					<polyline id="SVGID_1_" points="11,14.9 11.1,11.7 13.9,11.3 					"/>
				</defs>
				<clipPath id="SVGID_2_">
					<use xlink:href="#SVGID_1_"  style="overflow:visible;"/>
				</clipPath>
				<g class="st1">
					<polyline class="st2" points="11,14.9 11.1,11.7 13.9,11.3 					"/>
				</g>
			</g>
			<polyline class="st3" points="11,14.9 11.1,11.7 13.9,11.3 			"/>
		</g>
		<g>
			<g>
				<defs>
					<polygon id="SVGID_3_" points="15.5,12.2 15.5,15.3 12.6,15.7 12.6,12.6 					"/>
				</defs>
				<clipPath id="SVGID_4_">
					<use xlink:href="#SVGID_3_"  style="overflow:visible;"/>
				</clipPath>
				<g class="st4">
					<polygon class="st2" points="15.5,12.2 15.5,15.3 12.6,15.7 12.6,12.6 					"/>
				</g>
			</g>
			<polygon class="st3" points="15.5,12.2 15.5,15.3 12.6,15.7 12.6,12.6 			"/>
		</g>
		<g>
			<g>
				<defs>
					<polyline id="SVGID_5_" points="13.9,11.3 15.5,12.2 15.5,15.3 					"/>
				</defs>
				<clipPath id="SVGID_6_">
					<use xlink:href="#SVGID_5_"  style="overflow:visible;"/>
				</clipPath>
				<g class="st5">
					<polyline class="st2" points="13.9,11.3 15.5,12.2 15.5,15.3 					"/>
				</g>
			</g>
			<polyline class="st3" points="13.9,11.3 15.5,12.2 15.5,15.3 			"/>
		</g>
		<g>
			<polyline class="st3" points="15.5,15.3 12.6,15.7 11,14.9 			"/>
		</g>
		<g>
			<g>
				<defs>
					<polygon id="SVGID_7_" points="12.6,15.7 11,14.9 11.1,11.7 12.6,12.6 					"/>
				</defs>
				<clipPath id="SVGID_8_">
					<use xlink:href="#SVGID_7_"  style="overflow:visible;"/>
				</clipPath>
				<g class="st6">
					<polygon class="st2" points="12.6,15.7 11,14.9 11.1,11.7 12.6,12.6 					"/>
				</g>
			</g>
			<polygon class="st3" points="12.6,15.7 11,14.9 11.1,11.7 12.6,12.6 			"/>
		</g>
		<g>
			<g>
				<defs>
					<polygon id="SVGID_9_" points="12.6,12.6 11.1,11.7 13.9,11.3 15.5,12.2 					"/>
				</defs>
				<clipPath id="SVGID_10_">
					<use xlink:href="#SVGID_9_"  style="overflow:visible;"/>
				</clipPath>
				<g class="st7">
					<polygon class="st2" points="12.6,12.6 11.1,11.7 13.9,11.3 15.5,12.2 					"/>
				</g>
			</g>
			<polygon class="st3" points="12.6,12.6 11.1,11.7 13.9,11.3 15.5,12.2 			"/>
		</g>
	</g>
</g>
</svg>
