<?xml version="1.0" encoding="utf-8"?>
<!-- Generator: Adobe Illustrator 24.0.0, SVG Export Plug-In . SVG Version: 6.00 Build 0)  -->
<svg version="1.1" xmlns="http://www.w3.org/2000/svg" xmlns:xlink="http://www.w3.org/1999/xlink" x="0px" y="0px"
	 viewBox="0 0 16 16" style="enable-background:new 0 0 16 16;" xml:space="preserve">
<style type="text/css">
	.st0{fill:#3DC1D3;}
	.st1{fill:none;stroke:#FFFFFF;stroke-width:0.25;stroke-linecap:round;stroke-linejoin:round;stroke-miterlimit:10;}
</style>
<g id="Calque_2">
</g>
<g id="Calque_1">
	<g>
		<path class="st0" d="M8.29,12.65c-0.13,0.31-0.31,0.58-0.54,0.81c-0.23,0.23-0.5,0.41-0.81,0.54c-0.31,0.13-0.63,0.2-0.98,0.2
			H5.27c-0.35,0-0.67-0.07-0.98-0.2c-0.31-0.13-0.58-0.31-0.81-0.54c-0.23-0.23-0.41-0.5-0.54-0.81c-0.13-0.31-0.2-0.63-0.2-0.98V2
			h1.03v4.16c0.23-0.28,0.52-0.5,0.85-0.65C4.95,5.35,5.31,5.27,5.7,5.27h0.26c0.35,0,0.67,0.07,0.98,0.2
			C7.25,5.6,7.52,5.78,7.74,6.01c0.23,0.23,0.41,0.5,0.54,0.81c0.13,0.31,0.2,0.63,0.2,0.98v3.88C8.48,12.02,8.42,12.35,8.29,12.65z
			 M7.45,7.74c0-0.21-0.04-0.4-0.12-0.58C7.25,6.97,7.15,6.82,7.01,6.68S6.72,6.44,6.54,6.36C6.36,6.28,6.16,6.25,5.96,6.25H5.27
			c-0.21,0-0.4,0.04-0.58,0.12C4.5,6.44,4.35,6.55,4.21,6.68C4.08,6.82,3.97,6.97,3.89,7.16C3.82,7.34,3.78,7.53,3.78,7.74v3.99
			c0,0.21,0.04,0.4,0.12,0.58c0.08,0.18,0.18,0.34,0.32,0.47c0.13,0.13,0.29,0.24,0.47,0.32c0.18,0.08,0.38,0.12,0.58,0.12h0.69
			c0.21,0,0.4-0.04,0.58-0.12c0.18-0.08,0.34-0.18,0.47-0.32c0.13-0.13,0.24-0.29,0.32-0.47c0.08-0.18,0.12-0.38,0.12-0.58V7.74z"/>
	</g>
	<path class="st0" d="M14.19,11.79L11.96,14c-0.66-0.26-1.13-0.87-1.13-1.62c0-0.96,0.79-1.74,1.74-1.74
		C13.32,10.64,13.96,11.13,14.19,11.79z"/>
	<path class="st1" d="M11.36,11.75c0,0-0.43,0.95,0.14,1.52"/>
	<g>
		<path class="st0" d="M44.2,14.75c-0.19,0.45-0.45,0.84-0.79,1.18c-0.33,0.33-0.73,0.6-1.18,0.79C41.79,16.9,41.31,17,40.8,17h-1
			c-0.51,0-0.98-0.1-1.43-0.29c-0.45-0.19-0.84-0.45-1.18-0.79c-0.33-0.33-0.6-0.73-0.79-1.18c-0.19-0.45-0.29-0.93-0.29-1.43V-0.8
			h1.51v6.07c0.34-0.41,0.75-0.73,1.24-0.95c0.48-0.23,1-0.34,1.57-0.34h0.38c0.51,0,0.98,0.1,1.43,0.29
			c0.45,0.19,0.84,0.46,1.18,0.79c0.33,0.33,0.6,0.73,0.79,1.18c0.19,0.45,0.29,0.93,0.29,1.43v5.66
			C44.49,13.82,44.39,14.3,44.2,14.75z M42.98,7.57c0-0.3-0.06-0.59-0.17-0.85c-0.11-0.27-0.27-0.5-0.47-0.69
			c-0.2-0.2-0.43-0.35-0.69-0.47c-0.27-0.11-0.55-0.17-0.85-0.17h-1c-0.3,0-0.59,0.06-0.85,0.17c-0.27,0.11-0.5,0.27-0.69,0.47
			c-0.2,0.2-0.35,0.43-0.47,0.69c-0.11,0.27-0.17,0.55-0.17,0.85v5.83c0,0.3,0.06,0.59,0.17,0.85c0.11,0.27,0.27,0.5,0.47,0.69
			c0.2,0.2,0.43,0.35,0.69,0.47c0.27,0.11,0.55,0.17,0.85,0.17h1c0.3,0,0.59-0.06,0.85-0.17c0.27-0.11,0.5-0.27,0.69-0.47
			s0.35-0.43,0.47-0.69c0.11-0.27,0.17-0.55,0.17-0.85V7.57z"/>
	</g>
	<path class="st0" d="M52.82,13.48l-3.26,3.23c-0.96-0.37-1.64-1.27-1.64-2.36c0-1.4,1.15-2.54,2.54-2.54
		C51.55,11.81,52.48,12.52,52.82,13.48z"/>
	<path class="st1" d="M48.69,13.42c0,0-0.63,1.38,0.2,2.21"/>
</g>
</svg>
