<svg id="Calque_2" data-name="Calque 2" xmlns="http://www.w3.org/2000/svg" viewBox="0 0 479 91.02"><defs><style>.cls-1{fill:#fff;}</style></defs><title>logo</title><circle class="cls-1" cx="417.83" cy="83.36" r="6.09"/><rect class="cls-1" x="434.77" y="77.27" width="44.23" height="12.18" rx="6.09"/><path class="cls-1" d="M61.35,290A18.82,18.82,0,0,1,51.3,300,18.48,18.48,0,0,1,44,301.51H38.84A18.41,18.41,0,0,1,31.52,300a18.82,18.82,0,0,1-10-10.05A18.41,18.41,0,0,1,20,282.67V210.49h7.7v31A18.49,18.49,0,0,1,42,234.9H44a18.48,18.48,0,0,1,7.32,1.47,18.82,18.82,0,0,1,10.05,10,18.49,18.49,0,0,1,1.47,7.33v28.92A18.41,18.41,0,0,1,61.35,290Zm-6.23-36.68a10.74,10.74,0,0,0-.88-4.35,11,11,0,0,0-2.38-3.54A11.38,11.38,0,0,0,48.33,243a11,11,0,0,0-4.35-.87H38.84a11,11,0,0,0-4.35.87A11.38,11.38,0,0,0,31,245.42,11,11,0,0,0,28.58,249a10.74,10.74,0,0,0-.88,4.35v29.8a10.81,10.81,0,0,0,.88,4.35,11.14,11.14,0,0,0,5.91,5.91,10.81,10.81,0,0,0,4.35.88H44a10.81,10.81,0,0,0,4.35-.88,11.14,11.14,0,0,0,5.91-5.91,10.81,10.81,0,0,0,.88-4.35Z" transform="translate(-20 -210.49)"/><path class="cls-1" d="M119.57,290a18.82,18.82,0,0,1-10,10.05,18.49,18.49,0,0,1-7.33,1.47H97.06A18.41,18.41,0,0,1,89.74,300a18.82,18.82,0,0,1-10-10.05,18.41,18.41,0,0,1-1.47-7.32V253.75a18.49,18.49,0,0,1,1.47-7.33,18.82,18.82,0,0,1,10-10,18.41,18.41,0,0,1,7.32-1.47h5.13a18.49,18.49,0,0,1,7.33,1.47,18.82,18.82,0,0,1,10,10,18.49,18.49,0,0,1,1.47,7.33v28.92A18.41,18.41,0,0,1,119.57,290Zm-6.23-36.68a10.91,10.91,0,0,0-.88-4.35,11.14,11.14,0,0,0-2.38-3.54,11.31,11.31,0,0,0-3.54-2.38,10.9,10.9,0,0,0-4.35-.87H97.06a11,11,0,0,0-4.35.87A11.09,11.09,0,0,0,86.79,249a10.9,10.9,0,0,0-.87,4.35v29.8a11,11,0,0,0,.87,4.35A11.38,11.38,0,0,0,89.17,291a11,11,0,0,0,3.54,2.38,10.81,10.81,0,0,0,4.35.88h5.13a10.74,10.74,0,0,0,4.35-.88,11,11,0,0,0,3.54-2.38,11.21,11.21,0,0,0,2.38-3.53,11,11,0,0,0,.88-4.35Z" transform="translate(-20 -210.49)"/><path class="cls-1" d="M176.69,300.26l-4.26-6.51a19.17,19.17,0,0,1-6.57,5.66,18.1,18.1,0,0,1-8.64,2.1h-1.94A18.49,18.49,0,0,1,148,300a19.09,19.09,0,0,1-6-4,18.84,18.84,0,0,1-4-6,18.41,18.41,0,0,1-1.47-7.32V236.16h7.7v47a11,11,0,0,0,.87,4.35,11.38,11.38,0,0,0,2.38,3.53,11,11,0,0,0,3.54,2.38,10.74,10.74,0,0,0,4.35.88h5.13a10.74,10.74,0,0,0,4.35-.88A11,11,0,0,0,168.3,291a11.38,11.38,0,0,0,2.38-3.53,11,11,0,0,0,.87-4.35v-47h7.7v64.1Z" transform="translate(-20 -210.49)"/><path class="cls-1" d="M218,300.26a16.69,16.69,0,0,1-6.6-1.32,16.28,16.28,0,0,1-5.38-3.63,17.69,17.69,0,0,1-3.64-5.38,16.29,16.29,0,0,1-1.34-6.57V243.48H189.52v-7.32H201v-15.4l7.7-1.26v16.66H225v7.32H208.74v40.25a8.9,8.9,0,0,0,.72,3.6,9.3,9.3,0,0,0,2,2.91,9.23,9.23,0,0,0,6.57,2.69h7v7.33Z" transform="translate(-20 -210.49)"/><path class="cls-1" d="M279.41,300.26l-4.25-6.39a19.86,19.86,0,0,1-6.58,5.54,18,18,0,0,1-8.63,2.1H258a18.48,18.48,0,0,1-7.32-1.47A18.82,18.82,0,0,1,240.63,290a18.41,18.41,0,0,1-1.47-7.32V282a18.41,18.41,0,0,1,1.47-7.32,18.82,18.82,0,0,1,10.05-10.05A18.48,18.48,0,0,1,258,263.2h16.28v-9.89a10.74,10.74,0,0,0-.88-4.35,11.12,11.12,0,0,0-2.37-3.54,11.54,11.54,0,0,0-3.54-2.38,11,11,0,0,0-4.35-.87h-4.51a11,11,0,0,0-4.35.87,11.09,11.09,0,0,0-5.92,5.92,10.9,10.9,0,0,0-.87,4.35v2.31l-7.7-1.25v-.62a18.49,18.49,0,0,1,1.47-7.33,18.82,18.82,0,0,1,10.05-10,18.41,18.41,0,0,1,7.32-1.47h4.51a18.41,18.41,0,0,1,7.32,1.47,18.82,18.82,0,0,1,10.05,10,18.49,18.49,0,0,1,1.47,7.33v46.51Zm-5.13-31.05H258a11,11,0,0,0-7.88,3.29,11.58,11.58,0,0,0-2.38,3.56,10.81,10.81,0,0,0-.88,4.35v2.7a10.81,10.81,0,0,0,.88,4.35,11.21,11.21,0,0,0,2.38,3.53,11,11,0,0,0,3.53,2.38,10.81,10.81,0,0,0,4.35.88h5.14a10.81,10.81,0,0,0,4.35-.88,11.06,11.06,0,0,0,5.91-5.91,10.81,10.81,0,0,0,.88-4.35Z" transform="translate(-20 -210.49)"/><path class="cls-1" d="M300,300.26V210.49h7.7v89.77Z" transform="translate(-20 -210.49)"/><path class="cls-1" d="M367,290a18.82,18.82,0,0,1-10,10.05,18.41,18.41,0,0,1-7.32,1.47h-5.13a18.49,18.49,0,0,1-7.33-1.47A18.82,18.82,0,0,1,327.08,290a18.41,18.41,0,0,1-1.47-7.32V253.75a18.49,18.49,0,0,1,1.47-7.33,18.82,18.82,0,0,1,10.05-10,18.49,18.49,0,0,1,7.33-1.47h5.13a18.41,18.41,0,0,1,7.32,1.47,18.82,18.82,0,0,1,10,10,18.49,18.49,0,0,1,1.47,7.33v15.08H333.31v14.28a10.81,10.81,0,0,0,.88,4.35,11.21,11.21,0,0,0,2.38,3.53,11,11,0,0,0,3.53,2.38,10.82,10.82,0,0,0,4.36.88h5.13a10.81,10.81,0,0,0,4.35-.88,11.09,11.09,0,0,0,3.54-2.38,11.38,11.38,0,0,0,2.38-3.53,11,11,0,0,0,.87-4.35v-4.26l7.7,1.25v2.57A18.41,18.41,0,0,1,367,290Zm-6.23-36.68a10.9,10.9,0,0,0-.87-4.35,11.31,11.31,0,0,0-2.38-3.54,11.42,11.42,0,0,0-3.54-2.38,11,11,0,0,0-4.35-.87h-5.13a11,11,0,0,0-4.36.87,11.38,11.38,0,0,0-3.53,2.38,11.14,11.14,0,0,0-2.38,3.54,10.74,10.74,0,0,0-.88,4.35v9.51h27.42Z" transform="translate(-20 -210.49)"/><path class="cls-1" d="M425.18,290A18.82,18.82,0,0,1,415.13,300a18.44,18.44,0,0,1-7.32,1.47h-5.14a18.44,18.44,0,0,1-7.32-1.47A18.82,18.82,0,0,1,385.3,290a18.41,18.41,0,0,1-1.47-7.32V210.49h7.7v31a18.49,18.49,0,0,1,14.34-6.64h1.94a18.44,18.44,0,0,1,7.32,1.47,18.82,18.82,0,0,1,10.05,10,18.49,18.49,0,0,1,1.47,7.33v28.92A18.41,18.41,0,0,1,425.18,290ZM419,253.31a10.74,10.74,0,0,0-.88-4.35,11,11,0,0,0-2.38-3.54,11.38,11.38,0,0,0-3.53-2.38,11,11,0,0,0-4.35-.87h-5.14a11,11,0,0,0-4.35.87,11.38,11.38,0,0,0-3.53,2.38,11,11,0,0,0-2.38,3.54,10.74,10.74,0,0,0-.88,4.35v29.8a10.81,10.81,0,0,0,.88,4.35,11.14,11.14,0,0,0,5.91,5.91,10.81,10.81,0,0,0,4.35.88h5.14a10.81,10.81,0,0,0,4.35-.88,11.14,11.14,0,0,0,5.91-5.91,10.81,10.81,0,0,0,.88-4.35Z" transform="translate(-20 -210.49)"/></svg>